<svg width="28" height="28" viewBox="0 0 28 28" fill="none" xmlns="http://www.w3.org/2000/svg">
<path d="M13.4876 9.74158V11.0604C13.4876 11.9872 12.7344 12.7404 11.8076 12.7404C11.004 12.7404 10.332 12.1748 10.1668 11.4216H9.00481V18.5868C9.84761 18.6792 10.5056 19.3932 10.5056 20.2584C10.5056 21.188 9.75241 21.9384 8.82561 21.9384H5.82401C4.89441 21.9384 4.14401 21.188 4.14401 20.2584C4.14401 19.3932 4.79921 18.6792 5.64481 18.5868V11.4216H4.48001C4.31481 12.1748 3.64281 12.7404 2.83921 12.7404C1.91241 12.7404 1.15921 11.9872 1.15921 11.0604V9.74158C1.15921 8.81198 1.91241 8.06158 2.83921 8.06158H11.8076C12.7344 8.06158 13.4876 8.81198 13.4876 9.74158Z" fill="#639EFF"/>
<path d="M26.9192 9.74158V11.0604C26.9192 11.9872 26.1688 12.7404 25.2392 12.7404C24.4356 12.7404 23.7636 12.1748 23.5984 11.4216H22.4364V18.5868C23.2792 18.6792 23.9372 19.3932 23.9372 20.2584C23.9372 21.188 23.184 21.9384 22.2572 21.9384H19.2556C18.326 21.9384 17.5756 21.188 17.5756 20.2584C17.5756 19.3932 18.2308 18.6792 19.0764 18.5868V11.4216H17.9144C17.7492 12.1748 17.0772 12.7404 16.2708 12.7404C15.344 12.7404 14.5908 11.9872 14.5908 11.0604V9.74158C14.5908 8.81198 15.344 8.06158 16.2708 8.06158H25.2392C26.1688 8.06158 26.9192 8.81198 26.9192 9.74158Z" fill="#639EFF"/>
</svg>
