<svg width="28" height="28" viewBox="0 0 28 28" fill="none" xmlns="http://www.w3.org/2000/svg">
<path d="M24 4.5V7.0075C24 7.8375 23.3317 8.5075 22.5037 8.5075C21.6783 8.5075 21.0075 7.8375 21.0075 7.0075V6H15.4963V23H16.8454C17.6733 23 18.3416 23.6725 18.3416 24.5C18.3416 25.3275 17.6733 26 16.8454 26H11.1546C10.3267 26 9.65835 25.3275 9.65835 24.5C9.65835 23.6725 10.3267 23 11.1546 23H12.5037V6H6.99252V7.0075C6.99252 7.8375 6.3217 8.5075 5.49626 8.5075C4.66833 8.5075 4 7.8375 4 7.0075V4.5C4 3.6725 4.66833 3 5.49626 3H22.5037C23.3317 3 24 3.6725 24 4.5Z" fill="#639EFF"/>
</svg>
